<svg width="25" height="18" viewBox="0 0 25 18" fill="none" xmlns="http://www.w3.org/2000/svg">
<path d="M23.8651 1.33485C23.6828 1.09326 23.438 0.958008 23.1831 0.958008C22.9283 0.958008 22.6835 1.09326 22.5011 1.33485L12.2936 14.8322L2.0882 1.33485C1.90586 1.09326 1.66108 0.958007 1.4062 0.958007C1.15131 0.958007 0.906537 1.09326 0.724199 1.33485C0.635288 1.45228 0.56462 1.59268 0.516367 1.74776C0.468114 1.90285 0.443254 2.06948 0.443254 2.23781C0.443254 2.40614 0.468114 2.57277 0.516367 2.72785C0.56462 2.88294 0.635288 3.02334 0.724199 3.14077L11.581 17.494C11.7717 17.7461 12.0274 17.8871 12.2936 17.8871C12.5599 17.8871 12.8156 17.7461 13.0063 17.494L23.8631 3.14077C23.952 3.02334 24.0227 2.88294 24.0709 2.72785C24.1192 2.57277 24.144 2.40614 24.144 2.23781C24.144 2.06948 24.1192 1.90285 24.0709 1.74777C24.0227 1.59268 23.952 1.45228 23.8631 1.33485L23.8651 1.33485Z" fill="white"/>
</svg>
