<svg width="14" height="10" viewBox="0 0 14 10" fill="none" xmlns="http://www.w3.org/2000/svg">
<path d="M13.8353 0.2226C13.7275 0.0798931 13.583 -1.82295e-08 13.4324 -2.48107e-08C13.2818 -3.13919e-08 13.1373 0.0798931 13.0295 0.2226L7 8.19544L0.971662 0.222599C0.863955 0.0798925 0.719368 -5.80515e-07 0.568808 -5.87096e-07C0.418247 -5.93677e-07 0.27366 0.0798925 0.165954 0.222599C0.113434 0.291964 0.0716905 0.374899 0.0431871 0.466508C0.0146837 0.558116 -2.86984e-08 0.656542 -3.30448e-08 0.755975C-3.73911e-08 0.855409 0.0146837 0.953835 0.0431871 1.04544C0.0716905 1.13705 0.113434 1.21999 0.165954 1.28935L6.57905 9.76775C6.69168 9.91666 6.84273 10 7 10C7.15727 10 7.30832 9.91666 7.42095 9.76775L13.834 1.28935C13.8866 1.21999 13.9283 1.13705 13.9568 1.04544C13.9853 0.953836 14 0.85541 14 0.755976C14 0.656542 13.9853 0.558117 13.9568 0.466508C13.9283 0.3749 13.8866 0.291965 13.834 0.2226L13.8353 0.2226Z" fill="#407C46"/>
</svg>
