<svg width="101" height="106" viewBox="0 0 101 106" fill="none" xmlns="http://www.w3.org/2000/svg">
<path fill-rule="evenodd" clip-rule="evenodd" d="M46.6385 3.5C44.2406 3.5 42.5468 5.03991 41.4934 6.74727C40.8535 7.78442 40.6758 9.12026 40.6758 10.7141V24.3596L40.6774 24.3642C40.6864 24.3905 40.7246 24.5024 40.8731 24.7107C41.0761 24.9953 41.3922 25.3295 41.7992 25.6877C42.6106 26.4017 43.61 27.0602 44.2732 27.4393L45.029 27.8711V28.7416V35.5825V37.0825H43.529H41.6633C39.5812 37.0825 37.6189 36.3456 36.0652 35.5012C34.5111 34.6566 33.249 33.6409 32.5266 32.9203L14.4289 15.3708C12.9256 13.9131 11.289 12.7682 9.48078 12.2662C5.85361 11.2592 4.41567 12.0542 3.79383 12.8593C3.01986 13.8614 2.81737 15.6697 3.16125 17.8515C3.42893 19.5497 4.45934 21.1136 5.88986 22.5143L33.3847 49.4363L33.8352 49.8775V50.5081V89.6877H30.8352V51.1387L3.79098 24.6579C2.12217 23.0238 0.60553 20.9051 0.197839 18.3186C-0.174436 15.9567 -0.149746 13.0574 1.41954 11.0255C3.14096 8.79671 6.16235 8.23143 10.2833 9.37552C12.7629 10.0639 14.826 11.577 16.5174 13.2172L34.6229 30.7743L34.6312 30.7823L34.6393 30.7905C35.1621 31.3132 36.1972 32.1585 37.4977 32.8653C38.8047 33.5756 40.2629 34.0825 41.6633 34.0825H42.029V29.5854C41.3399 29.1447 40.5339 28.5704 39.8173 27.9398C39.3174 27.4999 38.8172 26.9945 38.4306 26.4526C38.0644 25.939 37.6758 25.2208 37.6758 24.3883V10.7141C37.6758 8.99881 37.8426 6.95106 38.9402 5.17204C40.2676 3.02058 42.7697 0.5 46.6385 0.5H49.748H50.0079H50.3699H50.6298H50.9918H51.2517H54.3612C58.2301 0.5 60.7321 3.02058 62.0595 5.17204C63.1571 6.95106 63.324 8.99881 63.324 10.7141V24.3883C63.324 25.2208 62.9353 25.939 62.5691 26.4526C62.1826 26.9945 61.6824 27.4999 61.1825 27.9398C60.4659 28.5704 59.6599 29.1447 58.9707 29.5854V34.0825H59.3364C60.7369 34.0825 62.195 33.5756 63.5021 32.8653C64.8025 32.1585 65.8377 31.3132 66.3604 30.7905L66.3686 30.7823L66.3769 30.7743L84.4824 13.2172C86.1737 11.577 88.2368 10.0639 90.7165 9.37552C94.8374 8.23143 97.8588 8.79671 99.5802 11.0255C101.15 13.0574 101.174 15.9567 100.802 18.3186C100.394 20.9051 98.8776 23.0238 97.2088 24.6579L70.1645 51.1387V89.6877H67.1645V50.5081V49.8775L67.6151 49.4363L95.1099 22.5143C96.5404 21.1136 97.5708 19.5497 97.8385 17.8515C98.1824 15.6697 97.9799 13.8614 97.2059 12.8593C96.5841 12.0542 95.1462 11.2592 91.519 12.2662C89.7107 12.7682 88.0742 13.9131 86.5708 15.3708L68.4732 32.9203C67.7507 33.6409 66.4887 34.6566 64.9346 35.5012C63.3809 36.3456 61.4186 37.0825 59.3364 37.0825H57.4707H55.9707V35.5825V28.7416V27.8711L56.7265 27.4393C57.3898 27.0602 58.3891 26.4017 59.2006 25.6877C59.6076 25.3295 59.9236 24.9953 60.1266 24.7107C60.2751 24.5024 60.3134 24.3905 60.3224 24.3642L60.324 24.3596V10.7141C60.324 9.12026 60.1463 7.78442 59.5064 6.74727C58.453 5.03991 56.7591 3.5 54.3612 3.5H51.2517H50.9918H50.6298H50.3699H50.0079H49.748H46.6385ZM1.12976 75.5013L12.1298 75.9775L13.646 76.0432L13.5626 77.5585L13.0388 87.0823L10.0433 86.9176L10.3542 81.2649C7.19888 83.3558 5.7523 85.4776 5.58264 87.3441C5.38812 89.4842 6.83473 92.0127 10.878 94.5408C14.8588 97.0298 20.8197 99.1529 28.1804 100.618C35.5208 102.078 43.8834 102.811 52.3574 102.728C60.832 102.646 69.061 101.751 76.1496 100.151C83.2636 98.5455 88.8481 96.3158 92.3899 93.7804C95.9546 91.2289 96.958 88.7693 96.4297 86.656C95.8508 84.3398 93.3237 81.7349 88.3639 79.352L89.6631 76.6479C94.8129 79.1221 98.4212 82.252 99.3402 85.9284C100.31 89.8077 98.1168 93.3705 94.1361 96.2199C90.1327 99.0856 84.11 101.43 76.81 103.077C69.4845 104.731 61.0409 105.644 52.3867 105.728C43.7319 105.813 35.1614 105.066 27.5948 103.56C20.0485 102.058 13.6958 99.8408 9.28752 97.0845C4.9417 94.3672 2.24296 90.9451 2.59496 87.0726C2.88029 83.9335 5.12807 81.1569 8.6039 78.8277L1.00001 78.4985L1.12976 75.5013Z" fill="#51906E"/>
</svg>
