<svg width="88" height="94" viewBox="0 0 88 94" fill="none" xmlns="http://www.w3.org/2000/svg">
<path fill-rule="evenodd" clip-rule="evenodd" d="M77.4021 36.2719C77.5794 37.5227 77.7015 38.3838 77.8384 38.9078C78.5078 41.4692 80.4099 44.662 82.4398 47.647C83.2982 48.9093 84.1528 50.0972 84.9126 51.1532L85.1225 51.4451L85.2792 51.6632C86.097 52.8019 86.831 53.8358 87.2205 54.544C87.4265 54.9187 87.5397 55.3615 87.4869 55.8378C87.4356 56.3001 87.2412 56.6767 87.0282 56.9594C86.6335 57.4832 86.053 57.8453 85.5657 58.0991C84.5539 58.6263 83.1492 59.0771 81.8812 59.4684C81.6682 59.5342 81.4581 59.5985 81.2518 59.6616C80.1579 59.9966 79.1729 60.2981 78.4266 60.6032C78.2329 60.6824 78.079 60.7526 77.9593 60.8127C78.0244 61.4326 78.0451 62.2227 78.0467 63.0435C78.0491 64.3118 78.0022 65.8747 77.9156 67.52C77.7433 70.7947 77.4085 74.4943 76.9661 76.9177C76.6305 78.7558 75.3355 79.8134 73.8875 80.3953C72.4977 80.9537 70.7839 81.1606 69.1307 81.2677C68.2869 81.3224 67.4161 81.3528 66.5661 81.3808L66.3699 81.3873C65.5808 81.4132 64.8117 81.4385 64.0657 81.4802C62.4229 81.572 61.0492 81.738 60.039 82.0879C58.9699 82.4583 58.3697 83.497 58.167 85.5609C58.07 86.5496 58.0813 87.6368 58.1225 88.7576C58.1345 89.0849 58.1495 89.4215 58.1646 89.7592L58.1646 89.7595C58.199 90.5329 58.2338 91.3123 58.2338 91.9999H55.2338C55.2338 91.3805 55.2039 90.7131 55.171 89.9777C55.1552 89.6242 55.1387 89.255 55.1245 88.8678C55.0823 87.7188 55.0638 86.4658 55.1814 85.2678C55.4081 82.9584 56.215 80.2377 59.0571 79.2532C60.4914 78.7563 62.2265 78.5783 63.8983 78.4849C64.68 78.4412 65.4823 78.4148 66.2637 78.3892L66.2649 78.3891L66.4671 78.3825C67.3202 78.3543 68.1466 78.3252 68.9368 78.274C70.5518 78.1694 71.8538 77.9793 72.769 77.6116C73.626 77.2672 73.9253 76.8695 74.0148 76.3789C74.4227 74.1449 74.7496 70.5956 74.9198 67.3624C75.0044 65.7537 75.049 64.2478 75.0467 63.0492C75.0442 61.7734 74.9859 61.0347 74.9326 60.8235C74.6486 59.6968 75.4135 58.9379 75.7893 58.6413C76.2212 58.3003 76.7775 58.0363 77.2915 57.8262C78.177 57.4643 79.324 57.1137 80.4097 56.7818L80.4127 56.7808L80.6766 56.7001C80.7843 56.6671 80.8911 56.6344 80.9967 56.6018C82.317 56.1943 83.452 55.8176 84.1797 55.4385C84.1992 55.4283 84.218 55.4184 84.2361 55.4087C83.9075 54.9059 83.4355 54.2389 82.8425 53.4131C82.7255 53.2502 82.6047 53.0824 82.4808 52.9101C81.7218 51.8551 80.8418 50.632 79.9591 49.334C77.9362 46.3593 75.7504 42.7833 74.9359 39.6663C74.7513 38.9598 74.6001 37.8885 74.4297 36.6802L74.4295 36.6787L74.4253 36.6492C74.3988 36.461 74.3718 36.2695 74.3441 36.0756C74.128 34.5637 73.853 32.7491 73.424 30.7502C72.5647 26.7471 71.0974 22.0556 68.3061 17.7107C65.5266 13.3841 61.4201 9.37681 55.2208 6.72852C49.0187 4.07902 40.6293 2.75074 29.2286 3.93644C24.3755 4.88834 17.3991 6.92461 11.9496 12.0777C6.54832 17.1853 2.4503 25.5441 3.73785 39.5871C4.66071 49.6525 9.91339 58.5882 15.7134 67.3688C16.3264 68.2968 16.8635 69.2062 17.2507 70.0717C17.6321 70.9242 17.9138 71.8329 17.9138 72.7354C17.9138 75.2814 17.936 78.6948 18.1788 81.7769C18.3003 83.319 18.4745 84.7427 18.719 85.9144C18.9735 87.134 19.2693 87.8993 19.532 88.2675L19.531 88.2662C19.5302 88.2649 19.5314 88.2661 19.535 88.2695C19.5575 88.2912 19.6758 88.4052 19.9884 88.5796C20.3303 88.7702 20.8 88.9756 21.3853 89.1792C22.5535 89.5855 24.0612 89.9429 25.6578 90.17C27.2548 90.3972 28.8878 90.4865 30.3094 90.3833C31.7737 90.2769 32.8281 89.9785 33.4222 89.5832C35.0262 88.5161 35.668 87.6119 36.0186 86.4671C36.404 85.2089 36.4653 83.6099 36.5664 80.9749L36.5803 80.6127C36.6875 77.8376 36.6866 64.9707 36.6534 52.3358C31.013 51.69 27.6923 48.8834 25.9724 45.4632C24.2119 41.962 24.2116 37.9946 24.7327 35.4556L25.0519 33.9001L26.5867 34.3072C31.3706 35.5764 34.5895 38.0148 36.6148 40.7555C36.6052 38.3642 36.5952 36.125 36.5856 34.1318C31.2142 32.3148 28.56 28.8756 27.5975 25.1731C26.6115 21.3802 27.4445 17.5013 28.4871 15.1283L29.1259 13.6746L30.541 14.395C40.4188 19.4239 41.3908 28.5382 39.5805 33.0934L39.5878 34.5726C40.7964 32.9247 42.3183 31.7351 43.9798 30.9209C47.4989 29.1964 51.466 29.2369 53.9996 29.7839L55.5517 30.1191L55.1288 31.6496C52.3733 41.6223 44.5785 44.704 39.6286 44.3685C39.636 46.4229 39.6429 48.549 39.649 50.6958C40.4555 49.6638 41.4035 48.8095 42.4371 48.1152C45.6903 45.93 49.6264 45.4328 52.2107 45.6317L53.7939 45.7535L53.5822 47.3273C52.1768 57.7735 44.6209 61.8422 39.6714 62.0432C39.6796 71.0018 39.659 78.6333 39.5781 80.7284L39.5652 81.0683L39.5557 81.3218L39.5556 81.3234V81.3235C39.4664 83.7086 39.392 85.6969 38.8871 87.3455C38.2888 89.2994 37.1238 90.7239 35.0839 92.081C33.8457 92.9047 32.1708 93.256 30.5268 93.3754C28.8402 93.4979 26.9861 93.3892 25.2352 93.1401C23.4839 92.8909 21.7829 92.4937 20.3998 92.0127C19.7095 91.7726 19.0679 91.5011 18.5275 91.1998C18.0189 90.9162 17.4619 90.5316 17.0895 90.0095C16.447 89.1087 16.0532 87.8255 15.7823 86.5272C15.5014 85.181 15.3145 83.6174 15.1881 82.0125C14.935 78.8006 14.9138 75.2815 14.9138 72.7354C14.9138 72.4304 14.8111 71.9647 14.5123 71.2969C14.2193 70.6421 13.7803 69.8854 13.2102 69.0223C7.41266 60.2454 1.74875 50.7499 0.750385 39.8611C-0.608462 25.0405 3.72289 15.7282 9.88842 9.89798C15.9815 4.13626 23.6715 1.96314 28.7194 0.979198L28.7843 0.966542L28.8501 0.959651C40.6578 -0.277173 49.605 1.06723 56.3993 3.96971C63.2084 6.8785 67.7617 11.3127 70.8302 16.0892C73.8869 20.8473 75.4556 25.9204 76.3572 30.1206C76.8085 32.2233 77.0951 34.1201 77.3139 35.6513C77.3448 35.868 77.3742 36.0748 77.4021 36.2719ZM77.6215 61.0184C77.6213 61.0185 77.6237 61.0162 77.6294 61.0113C77.6246 61.016 77.6218 61.0183 77.6215 61.0184ZM51.7094 32.4846C49.7818 32.3444 47.4007 32.5854 45.2999 33.6148C42.9047 34.7886 40.7256 37.0532 40.0469 41.388C43.3878 41.5193 49.0712 39.554 51.7094 32.4846ZM28.6527 44.1154C27.6017 42.0253 27.3363 39.6469 27.4567 37.7179C34.5528 40.2835 36.5763 45.9463 36.4793 49.2884C32.1378 48.6542 29.851 46.4985 28.6527 44.1154ZM50.3073 48.6176C48.3785 48.7397 46.052 49.301 44.11 50.6055C41.8958 52.0929 40.0435 54.6317 39.9581 59.0184C43.286 58.696 48.6508 55.9792 50.3073 48.6176ZM30.501 24.4183C29.9124 22.1541 30.1524 19.7729 30.6752 17.9123C37.0743 21.911 37.8633 27.8725 37.0666 31.1197C32.9551 29.5878 31.1721 26.9999 30.501 24.4183Z" fill="#51916E"/>
</svg>
