<svg width="90" height="137" viewBox="0 0 90 137" fill="none" xmlns="http://www.w3.org/2000/svg">
<path fill-rule="evenodd" clip-rule="evenodd" d="M83 3H34C31.7909 3 30 4.79086 30 7V30C30 32.2091 31.7909 34 34 34H42.5H45.1523H45.5V39.0891C45.7904 38.704 46.1155 38.3218 46.4835 37.9503C48.6719 35.7412 52.1017 34.1774 57.9659 34.0141V34H59H83C85.2091 34 87 32.2091 87 30V7C87 4.79086 85.2091 3 83 3ZM59 37C53.0004 37 50.1846 38.4769 48.6147 40.0616C47.8025 40.8815 47.2448 41.8074 46.7569 42.7856C46.5729 43.1546 46.4081 43.5111 46.2384 43.8783L46.2381 43.879L46.2365 43.8825C46.177 44.0112 46.1168 44.1413 46.0551 44.2736C45.8254 44.7659 45.5762 45.282 45.2907 45.7642L42.5 50.4774V45V37H34C30.134 37 27 33.866 27 30V7C27 3.13401 30.134 0 34 0H83C86.866 0 90 3.13401 90 7V30C90 33.866 86.866 37 83 37H59ZM78.5 14.5H40.5V11.5H78.5V14.5ZM40 20.5H78V17.5H40V20.5ZM73 26.5H40V23.5H73V26.5ZM42 77.0227C48.0751 77.0227 53 72.0978 53 66.0227C53 59.9476 48.0751 55.0227 42 55.0227C35.9249 55.0227 31 59.9476 31 66.0227C31 72.0978 35.9249 77.0227 42 77.0227ZM42 80.0227C49.732 80.0227 56 73.7547 56 66.0227C56 58.2907 49.732 52.0227 42 52.0227C34.268 52.0227 28 58.2907 28 66.0227C28 73.7547 34.268 80.0227 42 80.0227ZM58 133.023V100.523C58 91.41 50.6127 84.0227 41.5 84.0227C32.3873 84.0227 25 91.41 25 100.523V133.023H58ZM41.5 81.0227C30.7304 81.0227 22 89.7532 22 100.523V133.023V136.023H25H58H61V133.023V100.523C61 89.7532 52.2696 81.0227 41.5 81.0227ZM0.5 103.623C0.5 94.8656 8.3001 86.7881 17.2334 87.6326C17.6275 87.6699 18.0045 87.7151 18.3588 87.7659C19.8868 87.9851 20.5336 89.5909 19.99 90.7932C18.2957 94.5405 17.8438 99.1393 17.8438 101.036V134.023V135.523H16.3438H2H0.5V134.023V133.976V133.929V133.882V133.834V133.786V133.738V133.69V133.642V133.594V133.545V133.496V133.447V133.397V133.348V133.298V133.248V133.198V133.148V133.097V133.047V132.996V132.945V132.893V132.842V132.79V132.738V132.686V132.634V132.582V132.529V132.476V132.424V132.37V132.317V132.264V132.21V132.156V132.102V132.048V131.993V131.939V131.884V131.829V131.774V131.719V131.664V131.608V131.552V131.496V131.44V131.384V131.328V131.271V131.214V131.157V131.1V131.043V130.986V130.928V130.871V130.813V130.755V130.697V130.638V130.58V130.521V130.463V130.404V130.345V130.285V130.226V130.167V130.107V130.047V129.987V129.927V129.867V129.807V129.746V129.686V129.625V129.564V129.503V129.442V129.381V129.319V129.258V129.196V129.134V129.072V129.01V128.948V128.886V128.824V128.761V128.698V128.636V128.573V128.51V128.447V128.383V128.32V128.256V128.193V128.129V128.065V128.001V127.937V127.873V127.809V127.745V127.68V127.616V127.551V127.486V127.421V127.356V127.291V127.226V127.161V127.095V127.03V126.964V126.899V126.833V126.767V126.701V126.635V126.569V126.503V126.436V126.37V126.303V126.237V126.17V126.103V126.037V125.97V125.903V125.836V125.769V125.701V125.634V125.567V125.499V125.432V125.364V125.296V125.229V125.161V125.093V125.025V124.957V124.889V124.821V124.753V124.684V124.616V124.548V124.479V124.411V124.342V124.274V124.205V124.136V124.067V123.999V123.93V123.861V123.792V123.723V123.654V123.584V123.515V123.446V123.377V123.307V123.238V123.169V123.099V123.03V122.96V122.89V122.821V122.751V122.681V122.612V122.542V122.472V122.402V122.333V122.263V122.193V122.123V122.053V121.983V121.913V121.843V121.773V121.703V121.633V121.562V121.492V121.422V121.352V121.282V121.212V121.141V121.071V121.001V120.931V120.86V120.79V120.72V120.649V120.579V120.509V120.438V120.368V120.298V120.227V120.157V120.087V120.016V119.946V119.876V119.805V119.735V119.665V119.594V119.524V119.454V119.384V119.313V119.243V119.173V119.103V119.032V118.962V118.892V118.822V118.752V118.681V118.611V118.541V118.471V118.401V118.331V118.261V118.191V118.121V118.051V117.981V117.911V117.841V117.772V117.702V117.632V117.562V117.493V117.423V117.353V117.284V117.214V117.145V117.075V117.006V116.937V116.867V116.798V116.729V116.66V116.591V116.521V116.452V116.383V116.314V116.246V116.177V116.108V116.039V115.971V115.902V115.833V115.765V115.696V115.628V115.56V115.492V115.423V115.355V115.287V115.219V115.151V115.083V115.016V114.948V114.88V114.813V114.745V114.678V114.61V114.543V114.476V114.409V114.342V114.275V114.208V114.141V114.074V114.008V113.941V113.875V113.808V113.742V113.676V113.61V113.544V113.478V113.412V113.346V113.281V113.215V113.15V113.084V113.019V112.954V112.889V112.824V112.759V112.694V112.63V112.565V112.501V112.436V112.372V112.308V112.244V112.18V112.116V112.052V111.989V111.925V111.862V111.799V111.736V111.673V111.61V111.547V111.485V111.422V111.36V111.297V111.235V111.173V111.111V111.05V110.988V110.926V110.865V110.804V110.743V110.682V110.621V110.56V110.5V110.439V110.379V110.319V110.259V110.199V110.139V110.08V110.02V109.961V109.902V109.843V109.784V109.725V109.667V109.608V109.55V109.492V109.434V109.376V109.318V109.261V109.204V109.146V109.089V109.033V108.976V108.919V108.863V108.807V108.751V108.695V108.639V108.584V108.528V108.473V108.418V108.363V108.309V108.254V108.2V108.146V108.092V108.038V107.984V107.931V107.877V107.824V107.771V107.719V107.666V107.614V107.562V107.51V107.458V107.406V107.355V107.303V107.252V107.202V107.151V107.1V107.05V107V106.95V106.901V106.851V106.802V106.753V106.704V106.655V106.607V106.559V106.51V106.463V106.415V106.368V106.32V106.273V106.227V106.18V106.134V106.087V106.041V105.996V105.95V105.905V105.86V105.815V105.77V105.726V105.682V105.638V105.594V105.551V105.507V105.464V105.421V105.379V105.336V105.294V105.252V105.211V105.169V105.128V105.087V105.046V105.006V104.966V104.926V104.886V104.846V104.807V104.768V104.729V104.691V104.652V104.614V104.577V104.539V104.502V104.465V104.428V104.391V104.355V104.319V104.283V104.248V104.212V104.177V104.143V104.108V104.074V104.04V104.006V103.973V103.94V103.907V103.874V103.842V103.81V103.778V103.746V103.715V103.684V103.653V103.623ZM16.8157 90.6074C9.90584 90.0449 3.5 96.4612 3.5 103.623V103.653V103.684V103.715V103.746V103.778V103.81V103.842V103.874V103.907V103.94V103.973V104.006V104.04V104.074V104.108V104.143V104.177V104.212V104.248V104.283V104.319V104.355V104.391V104.428V104.465V104.502V104.539V104.577V104.614V104.652V104.691V104.729V104.768V104.807V104.846V104.886V104.926V104.966V105.006V105.046V105.087V105.128V105.169V105.211V105.252V105.294V105.336V105.379V105.421V105.464V105.507V105.551V105.594V105.638V105.682V105.726V105.77V105.815V105.86V105.905V105.95V105.996V106.041V106.087V106.134V106.18V106.227V106.273V106.32V106.368V106.415V106.463V106.51V106.559V106.607V106.655V106.704V106.753V106.802V106.851V106.901V106.95V107V107.05V107.1V107.151V107.202V107.252V107.303V107.355V107.406V107.458V107.51V107.562V107.614V107.666V107.719V107.771V107.824V107.877V107.931V107.984V108.038V108.092V108.146V108.2V108.254V108.309V108.363V108.418V108.473V108.528V108.584V108.639V108.695V108.751V108.807V108.863V108.919V108.976V109.033V109.089V109.146V109.204V109.261V109.318V109.376V109.434V109.492V109.55V109.608V109.667V109.725V109.784V109.843V109.902V109.961V110.02V110.08V110.139V110.199V110.259V110.319V110.379V110.439V110.5V110.56V110.621V110.682V110.743V110.804V110.865V110.926V110.988V111.05V111.111V111.173V111.235V111.297V111.36V111.422V111.485V111.547V111.61V111.673V111.736V111.799V111.862V111.925V111.989V112.052V112.116V112.18V112.244V112.308V112.372V112.436V112.501V112.565V112.63V112.694V112.759V112.824V112.889V112.954V113.019V113.084V113.15V113.215V113.281V113.346V113.412V113.478V113.544V113.61V113.676V113.742V113.808V113.875V113.941V114.008V114.074V114.141V114.208V114.275V114.342V114.409V114.476V114.543V114.61V114.678V114.745V114.813V114.88V114.948V115.016V115.083V115.151V115.219V115.287V115.355V115.423V115.492V115.56V115.628V115.696V115.765V115.833V115.902V115.971V116.039V116.108V116.177V116.246V116.314V116.383V116.452V116.521V116.591V116.66V116.729V116.798V116.867V116.937V117.006V117.075V117.145V117.214V117.284V117.353V117.423V117.493V117.562V117.632V117.702V117.772V117.841V117.911V117.981V118.051V118.121V118.191V118.261V118.331V118.401V118.471V118.541V118.611V118.681V118.752V118.822V118.892V118.962V119.032V119.103V119.173V119.243V119.313V119.384V119.454V119.524V119.594V119.665V119.735V119.805V119.876V119.946V120.016V120.087V120.157V120.227V120.298V120.368V120.438V120.509V120.579V120.649V120.72V120.79V120.86V120.931V121.001V121.071V121.141V121.212V121.282V121.352V121.422V121.492V121.562V121.633V121.703V121.773V121.843V121.913V121.983V122.053V122.123V122.193V122.263V122.333V122.402V122.472V122.542V122.612V122.681V122.751V122.821V122.89V122.96V123.03V123.099V123.169V123.238V123.307V123.377V123.446V123.515V123.584V123.654V123.723V123.792V123.861V123.93V123.999V124.067V124.136V124.205V124.274V124.342V124.411V124.479V124.548V124.616V124.684V124.753V124.821V124.889V124.957V125.025V125.093V125.161V125.229V125.296V125.364V125.432V125.499V125.567V125.634V125.701V125.769V125.836V125.903V125.97V126.037V126.103V126.17V126.237V126.303V126.37V126.436V126.503V126.569V126.635V126.701V126.767V126.833V126.899V126.964V127.03V127.095V127.161V127.226V127.291V127.356V127.421V127.486V127.551V127.616V127.68V127.745V127.809V127.873V127.937V128.001V128.065V128.129V128.193V128.256V128.32V128.383V128.447V128.51V128.573V128.636V128.698V128.761V128.824V128.886V128.948V129.01V129.072V129.134V129.196V129.258V129.319V129.381V129.442V129.503V129.564V129.625V129.686V129.746V129.807V129.867V129.927V129.987V130.047V130.107V130.167V130.226V130.285V130.345V130.404V130.463V130.521V130.58V130.638V130.697V130.755V130.813V130.871V130.928V130.986V131.043V131.1V131.157V131.214V131.271V131.328V131.384V131.44V131.496V131.552V131.608V131.664V131.719V131.774V131.829V131.884V131.939V131.993V132.048V132.102V132.156V132.21V132.264V132.317V132.37V132.424V132.476V132.523H14.8438V101.036C14.8438 99.0609 15.2517 94.6256 16.8157 90.6074ZM66.3874 87.5918C75.3052 86.959 83.5 94.7069 83.5 103.623V103.653V103.684V103.715V103.746V103.778V103.81V103.842V103.874V103.907V103.94V103.973V104.006V104.04V104.074V104.108V104.143V104.177V104.212V104.248V104.283V104.319V104.355V104.391V104.428V104.465V104.502V104.539V104.577V104.614V104.652V104.691V104.729V104.768V104.807V104.846V104.886V104.926V104.966V105.006V105.046V105.087V105.128V105.169V105.211V105.252V105.294V105.336V105.379V105.421V105.464V105.507V105.551V105.594V105.638V105.682V105.726V105.77V105.815V105.86V105.905V105.95V105.996V106.041V106.087V106.134V106.18V106.227V106.273V106.32V106.368V106.415V106.463V106.51V106.559V106.607V106.655V106.704V106.753V106.802V106.851V106.901V106.95V107V107.05V107.1V107.151V107.202V107.252V107.303V107.355V107.406V107.458V107.51V107.562V107.614V107.666V107.719V107.771V107.824V107.877V107.931V107.984V108.038V108.092V108.146V108.2V108.254V108.309V108.363V108.418V108.473V108.528V108.584V108.639V108.695V108.751V108.807V108.863V108.919V108.976V109.033V109.089V109.146V109.204V109.261V109.318V109.376V109.434V109.492V109.55V109.608V109.667V109.725V109.784V109.843V109.902V109.961V110.02V110.08V110.139V110.199V110.259V110.319V110.379V110.439V110.5V110.56V110.621V110.682V110.743V110.804V110.865V110.926V110.988V111.05V111.111V111.173V111.235V111.297V111.36V111.422V111.485V111.547V111.61V111.673V111.736V111.799V111.862V111.925V111.989V112.052V112.116V112.18V112.244V112.308V112.372V112.436V112.501V112.565V112.63V112.694V112.759V112.824V112.889V112.954V113.019V113.084V113.15V113.215V113.281V113.346V113.412V113.478V113.544V113.61V113.676V113.742V113.808V113.875V113.941V114.008V114.074V114.141V114.208V114.275V114.342V114.409V114.476V114.543V114.61V114.678V114.745V114.813V114.88V114.948V115.016V115.083V115.151V115.219V115.287V115.355V115.423V115.492V115.56V115.628V115.696V115.765V115.833V115.902V115.971V116.039V116.108V116.177V116.246V116.314V116.383V116.452V116.521V116.591V116.66V116.729V116.798V116.867V116.937V117.006V117.075V117.145V117.214V117.284V117.353V117.423V117.493V117.562V117.632V117.702V117.772V117.841V117.911V117.981V118.051V118.121V118.191V118.261V118.331V118.401V118.471V118.541V118.611V118.681V118.752V118.822V118.892V118.962V119.032V119.103V119.173V119.243V119.313V119.384V119.454V119.524V119.594V119.665V119.735V119.805V119.876V119.946V120.016V120.087V120.157V120.227V120.298V120.368V120.438V120.509V120.579V120.649V120.72V120.79V120.86V120.931V121.001V121.071V121.141V121.212V121.282V121.352V121.422V121.492V121.562V121.633V121.703V121.773V121.843V121.913V121.983V122.053V122.123V122.193V122.263V122.333V122.402V122.472V122.542V122.612V122.681V122.751V122.821V122.89V122.96V123.03V123.099V123.169V123.238V123.307V123.377V123.446V123.515V123.584V123.654V123.723V123.792V123.861V123.93V123.999V124.067V124.136V124.205V124.274V124.342V124.411V124.479V124.548V124.616V124.684V124.753V124.821V124.889V124.957V125.025V125.093V125.161V125.229V125.296V125.364V125.432V125.499V125.567V125.634V125.701V125.769V125.836V125.903V125.97V126.037V126.103V126.17V126.237V126.303V126.37V126.436V126.503V126.569V126.635V126.701V126.767V126.833V126.899V126.964V127.03V127.095V127.161V127.226V127.291V127.356V127.421V127.486V127.551V127.616V127.68V127.745V127.809V127.873V127.937V128.001V128.065V128.129V128.193V128.256V128.32V128.383V128.447V128.51V128.573V128.636V128.698V128.761V128.824V128.886V128.948V129.01V129.072V129.134V129.196V129.258V129.319V129.381V129.442V129.503V129.564V129.625V129.686V129.746V129.807V129.867V129.927V129.987V130.047V130.107V130.167V130.226V130.285V130.345V130.404V130.463V130.521V130.58V130.638V130.697V130.755V130.813V130.871V130.928V130.986V131.043V131.1V131.157V131.214V131.271V131.328V131.384V131.44V131.496V131.552V131.608V131.664V131.719V131.774V131.829V131.884V131.939V131.993V132.048V132.102V132.156V132.21V132.264V132.317V132.37V132.424V132.476V132.529V132.582V132.634V132.686V132.738V132.79V132.842V132.893V132.945V132.996V133.047V133.097V133.148V133.198V133.248V133.298V133.348V133.397V133.447V133.496V133.545V133.594V133.642V133.69V133.738V133.786V133.834V133.882V133.929V133.976V134.023V135.523H82H66.8125H65.3125V134.023V101.036C65.3125 99.1558 64.8392 94.5947 63.0654 90.8635C62.4836 89.6397 63.1391 87.9755 64.7128 87.763C65.2297 87.6932 65.793 87.6339 66.3874 87.5918ZM80.5 103.623C80.5 96.4229 73.7571 90.0764 66.5997 90.5842C66.4758 90.593 66.3536 90.6026 66.2332 90.613C67.8814 94.6308 68.3125 99.0575 68.3125 101.036V132.523H80.5V132.476V132.424V132.37V132.317V132.264V132.21V132.156V132.102V132.048V131.993V131.939V131.884V131.829V131.774V131.719V131.664V131.608V131.552V131.496V131.44V131.384V131.328V131.271V131.214V131.157V131.1V131.043V130.986V130.928V130.871V130.813V130.755V130.697V130.638V130.58V130.521V130.463V130.404V130.345V130.285V130.226V130.167V130.107V130.047V129.987V129.927V129.867V129.807V129.746V129.686V129.625V129.564V129.503V129.442V129.381V129.319V129.258V129.196V129.134V129.072V129.01V128.948V128.886V128.824V128.761V128.698V128.636V128.573V128.51V128.447V128.383V128.32V128.256V128.193V128.129V128.065V128.001V127.937V127.873V127.809V127.745V127.68V127.616V127.551V127.486V127.421V127.356V127.291V127.226V127.161V127.095V127.03V126.964V126.899V126.833V126.767V126.701V126.635V126.569V126.503V126.436V126.37V126.303V126.237V126.17V126.103V126.037V125.97V125.903V125.836V125.769V125.701V125.634V125.567V125.499V125.432V125.364V125.296V125.229V125.161V125.093V125.025V124.957V124.889V124.821V124.753V124.684V124.616V124.548V124.479V124.411V124.342V124.274V124.205V124.136V124.067V123.999V123.93V123.861V123.792V123.723V123.654V123.584V123.515V123.446V123.377V123.307V123.238V123.169V123.099V123.03V122.96V122.89V122.821V122.751V122.681V122.612V122.542V122.472V122.402V122.333V122.263V122.193V122.123V122.053V121.983V121.913V121.843V121.773V121.703V121.633V121.562V121.492V121.422V121.352V121.282V121.212V121.141V121.071V121.001V120.931V120.86V120.79V120.72V120.649V120.579V120.509V120.438V120.368V120.298V120.227V120.157V120.087V120.016V119.946V119.876V119.805V119.735V119.665V119.594V119.524V119.454V119.384V119.313V119.243V119.173V119.103V119.032V118.962V118.892V118.822V118.752V118.681V118.611V118.541V118.471V118.401V118.331V118.261V118.191V118.121V118.051V117.981V117.911V117.841V117.772V117.702V117.632V117.562V117.493V117.423V117.353V117.284V117.214V117.145V117.075V117.006V116.937V116.867V116.798V116.729V116.66V116.591V116.521V116.452V116.383V116.314V116.246V116.177V116.108V116.039V115.971V115.902V115.833V115.765V115.696V115.628V115.56V115.492V115.423V115.355V115.287V115.219V115.151V115.083V115.016V114.948V114.88V114.813V114.745V114.678V114.61V114.543V114.476V114.409V114.342V114.275V114.208V114.141V114.074V114.008V113.941V113.875V113.808V113.742V113.676V113.61V113.544V113.478V113.412V113.346V113.281V113.215V113.15V113.084V113.019V112.954V112.889V112.824V112.759V112.694V112.63V112.565V112.501V112.436V112.372V112.308V112.244V112.18V112.116V112.052V111.989V111.925V111.862V111.799V111.736V111.673V111.61V111.547V111.485V111.422V111.36V111.297V111.235V111.173V111.111V111.05V110.988V110.926V110.865V110.804V110.743V110.682V110.621V110.56V110.5V110.439V110.379V110.319V110.259V110.199V110.139V110.08V110.02V109.961V109.902V109.843V109.784V109.725V109.667V109.608V109.55V109.492V109.434V109.376V109.318V109.261V109.204V109.146V109.089V109.033V108.976V108.919V108.863V108.807V108.751V108.695V108.639V108.584V108.528V108.473V108.418V108.363V108.309V108.254V108.2V108.146V108.092V108.038V107.984V107.931V107.877V107.824V107.771V107.719V107.666V107.614V107.562V107.51V107.458V107.406V107.355V107.303V107.252V107.202V107.151V107.1V107.05V107V106.95V106.901V106.851V106.802V106.753V106.704V106.655V106.607V106.559V106.51V106.463V106.415V106.368V106.32V106.273V106.227V106.18V106.134V106.087V106.041V105.996V105.95V105.905V105.86V105.815V105.77V105.726V105.682V105.638V105.594V105.551V105.507V105.464V105.421V105.379V105.336V105.294V105.252V105.211V105.169V105.128V105.087V105.046V105.006V104.966V104.926V104.886V104.846V104.807V104.768V104.729V104.691V104.652V104.614V104.577V104.539V104.502V104.465V104.428V104.391V104.355V104.319V104.283V104.248V104.212V104.177V104.143V104.108V104.074V104.04V104.006V103.973V103.94V103.907V103.874V103.842V103.81V103.778V103.746V103.715V103.684V103.653V103.623ZM76 76.0227C76 79.8887 72.866 83.0227 69 83.0227C65.134 83.0227 62 79.8887 62 76.0227C62 72.1567 65.134 69.0227 69 69.0227C72.866 69.0227 76 72.1567 76 76.0227ZM79 76.0227C79 81.5456 74.5229 86.0227 69 86.0227C63.4772 86.0227 59 81.5456 59 76.0227C59 70.4999 63.4772 66.0227 69 66.0227C74.5229 66.0227 79 70.4999 79 76.0227ZM14.5 83.0227C18.7817 83.0227 22 79.7524 22 76.0227C22 72.293 18.7817 69.0227 14.5 69.0227C10.2183 69.0227 7 72.293 7 76.0227C7 79.7524 10.2183 83.0227 14.5 83.0227ZM14.5 86.0227C20.299 86.0227 25 81.5456 25 76.0227C25 70.4999 20.299 66.0227 14.5 66.0227C8.70101 66.0227 4 70.4999 4 76.0227C4 81.5456 8.70101 86.0227 14.5 86.0227Z" fill="#51906E"/>
</svg>
